<svg version="1.1" xmlns="http://www.w3.org/2000/svg" viewBox="0 0 500.5232572490131 433.62649117564143" width="1001.0465144980262" height="867.2529823512829">
  <!-- svg-source:excalidraw -->
  
  <defs>
    <style class="style-fonts">
      @font-face {
        font-family: "Virgil";
        src: url("https://excalidraw.com/Virgil.woff2");
      }
      @font-face {
        font-family: "Cascadia";
        src: url("https://excalidraw.com/Cascadia.woff2");
      }
      @font-face {
        font-family: "Assistant";
        src: url("https://excalidraw.com/Assistant-Regular.woff2");
      }
    </style>
    
  </defs>
  <rect x="0" y="0" width="500.5232572490131" height="433.62649117564143" fill="#ffffff"></rect><g stroke-linecap="round" transform="translate(13.750139797284646 10) rotate(0 238.38655857767208 67.42710205450652)"><path d="M7.86 8.16 C7.86 8.16, 7.86 8.16, 7.86 8.16 M7.86 8.16 C7.86 8.16, 7.86 8.16, 7.86 8.16 M2.35 20.59 C5.96 14.23, 9.71 10.92, 18.1 2.48 M2.35 20.59 C6.33 15.3, 11.04 11.18, 18.1 2.48 M1.43 27.75 C9.68 16.51, 18.74 8.25, 24.4 1.33 M1.43 27.75 C10.64 17.98, 18.15 8.67, 24.4 1.33 M1.17 34.14 C11.37 20.99, 20.68 7.61, 30.7 0.18 M1.17 34.14 C10.95 24.25, 18.25 12.63, 30.7 0.18 M0.91 40.54 C9.6 27.85, 20.79 16.4, 36.34 -0.21 M0.91 40.54 C8.26 31.81, 16.49 23.77, 36.34 -0.21 M1.31 46.19 C16.03 30.05, 31.43 13.61, 41.33 0.15 M1.31 46.19 C11.43 33.64, 22.02 22.43, 41.33 0.15 M1.04 52.58 C11.94 38.33, 22.78 29.03, 46.97 -0.25 M1.04 52.58 C12.43 39.92, 23.4 26.49, 46.97 -0.25 M1.44 58.23 C23.19 34.22, 40.92 12.93, 51.96 0.11 M1.44 58.23 C16.99 39.39, 33.67 19.18, 51.96 0.11 M1.18 64.62 C19.92 42.89, 42.43 16.94, 57.6 -0.28 M1.18 64.62 C22.9 40.2, 45 14.36, 57.6 -0.28 M0.92 71.02 C16.19 54.21, 31.39 36.53, 62.59 0.08 M0.92 71.02 C21.62 47.67, 42.96 22.7, 62.59 0.08 M1.31 76.67 C21.2 53.38, 43.28 30.1, 67.57 0.44 M1.31 76.67 C26.65 48.42, 50.72 18.98, 67.57 0.44 M1.05 83.06 C18.68 61.6, 34.14 41.42, 73.22 0.04 M1.05 83.06 C19.8 63.88, 37.09 42.75, 73.22 0.04 M1.44 88.71 C29.91 53.95, 58.57 22.62, 78.2 0.41 M1.44 88.71 C20.72 66.21, 39.19 45.09, 78.2 0.41 M1.18 95.1 C33.15 60.15, 61.68 24.2, 83.85 0.01 M1.18 95.1 C31.36 62.77, 59.69 29.16, 83.85 0.01 M0.92 101.5 C19.3 79.68, 40.88 57.53, 88.83 0.37 M0.92 101.5 C21.6 78.35, 41.26 54.65, 88.83 0.37 M1.32 107.14 C31.19 72.9, 61 35.68, 94.48 -0.02 M1.32 107.14 C29.97 72.41, 59.77 38.68, 94.48 -0.02 M1.71 112.79 C32.53 79.75, 62.43 40.72, 99.46 0.34 M1.71 112.79 C25.32 83.35, 51 55.05, 99.46 0.34 M2.76 117.68 C32.29 82.69, 63.25 48.43, 105.11 -0.06 M2.76 117.68 C40.58 73.44, 77.31 30.53, 105.11 -0.06 M4.47 121.81 C37.32 81.67, 70.73 43.73, 110.09 0.3 M4.47 121.81 C34.72 87.11, 66.62 51.51, 110.09 0.3 M6.83 125.19 C48.9 77.29, 90.36 30.77, 115.74 -0.09 M6.83 125.19 C35.27 91.07, 65.01 59.11, 115.74 -0.09 M9.85 127.81 C42.99 89.33, 74.37 54.03, 120.72 0.27 M9.85 127.81 C49.88 83.38, 89.13 36.73, 120.72 0.27 M12.87 130.44 C50.03 86.17, 90.47 39.94, 126.37 -0.13 M12.87 130.44 C52.52 86.88, 91.17 43.24, 126.37 -0.13 M16.54 132.31 C50.64 91.1, 85.89 51, 131.35 0.23 M16.54 132.31 C53.53 89.51, 91.24 48.46, 131.35 0.23 M20.87 133.42 C54.98 94.41, 86.74 55.44, 137 -0.16 M20.87 133.42 C52.56 99.14, 80.69 64.19, 137 -0.16 M25.2 134.54 C50.7 107.21, 73.63 79.01, 141.98 0.2 M25.2 134.54 C64.27 89.55, 102.12 46.38, 141.98 0.2 M30.19 134.9 C74.31 82.49, 120.65 31.14, 147.63 -0.2 M30.19 134.9 C58.54 101.16, 88.22 68.05, 147.63 -0.2 M35.18 135.26 C64.16 105.67, 92.83 70.89, 152.61 0.16 M35.18 135.26 C74.93 91.14, 114.56 46.68, 152.61 0.16 M40.17 135.62 C73.81 93.37, 108.03 53.12, 158.26 -0.23 M40.17 135.62 C76.7 94.85, 112.78 54.45, 158.26 -0.23 M45.81 135.22 C74.87 100.22, 104.71 65.1, 163.24 0.13 M45.81 135.22 C90.65 82.36, 134.73 32.06, 163.24 0.13 M50.8 135.58 C76.26 103.95, 101.52 76.91, 168.89 -0.27 M50.8 135.58 C91.76 89.17, 132.77 42.08, 168.89 -0.27 M56.44 135.19 C89.98 92.09, 126.61 51.36, 173.87 0.09 M56.44 135.19 C100.39 87.6, 142.35 38.37, 173.87 0.09 M61.43 135.55 C108.32 81.26, 155.28 28.73, 178.86 0.45 M61.43 135.55 C92.94 99.89, 124.59 63.8, 178.86 0.45 M67.07 135.15 C93.55 100.2, 122.82 70.64, 184.5 0.06 M67.07 135.15 C92.09 107.23, 117.14 77.52, 184.5 0.06 M72.06 135.51 C93.67 108.38, 120.47 78.88, 189.49 0.42 M72.06 135.51 C106.88 93.85, 145.03 50.16, 189.49 0.42 M77.7 135.12 C108.67 94.98, 145.27 59.8, 195.13 0.03 M77.7 135.12 C116.62 90.2, 153.97 45.76, 195.13 0.03 M82.69 135.48 C118.37 93.02, 156.56 49.45, 200.12 0.39 M82.69 135.48 C115.05 98.67, 147.56 60.75, 200.12 0.39 M88.33 135.08 C122.08 100.12, 156.2 61.43, 205.76 -0.01 M88.33 135.08 C129.44 87.77, 169.58 41.59, 205.76 -0.01 M93.32 135.44 C128.02 97.97, 159.18 60.49, 210.75 0.35 M93.32 135.44 C129.87 94.93, 165.31 55.08, 210.75 0.35 M98.96 135.05 C130.63 101.18, 161.06 67.4, 216.39 -0.04 M98.96 135.05 C142.24 86.03, 185.17 36.1, 216.39 -0.04 M103.95 135.41 C145.69 85.6, 189.24 39.47, 221.38 0.32 M103.95 135.41 C138.15 97.12, 171.78 56.95, 221.38 0.32 M109.59 135.02 C139.21 99.62, 166.99 67.9, 227.02 -0.08 M109.59 135.02 C151.87 86.01, 192.86 38.14, 227.02 -0.08 M114.58 135.38 C152.52 97.16, 184.65 54.77, 232.01 0.28 M114.58 135.38 C150.75 96.64, 183.49 57.39, 232.01 0.28 M120.22 134.98 C154.02 96.84, 188.07 59.46, 237.65 -0.11 M120.22 134.98 C156.33 95.66, 191.12 53.36, 237.65 -0.11 M125.21 135.34 C166.25 84.78, 212.27 36.44, 242.64 0.25 M125.21 135.34 C162.96 91.79, 200.92 49.64, 242.64 0.25 M130.85 134.95 C178.61 82.4, 221.35 33.21, 248.28 -0.15 M130.85 134.95 C161.58 97.12, 193.65 61.36, 248.28 -0.15 M135.84 135.31 C169.28 96.85, 202.52 56.82, 253.27 0.21 M135.84 135.31 C175.94 90.44, 213.92 45.88, 253.27 0.21 M140.82 135.67 C181.84 83.62, 227.6 35.21, 258.91 -0.18 M140.82 135.67 C183.8 84.29, 227.84 33.08, 258.91 -0.18 M146.47 135.27 C184.69 94.98, 218.89 52.32, 263.9 0.18 M146.47 135.27 C174.71 103.72, 203.65 70.86, 263.9 0.18 M151.45 135.63 C181.37 98.69, 212.7 66.71, 269.54 -0.22 M151.45 135.63 C195.3 84.9, 240.76 34, 269.54 -0.22 M157.1 135.24 C202.33 84.65, 249.99 30.18, 274.53 0.14 M157.1 135.24 C191.71 93.95, 229.2 51.81, 274.53 0.14 M162.08 135.6 C191.83 101.53, 225.57 66.99, 280.17 -0.25 M162.08 135.6 C195.11 94.33, 229.57 55.25, 280.17 -0.25 M167.73 135.2 C210.27 87.94, 252.59 38.17, 285.16 0.11 M167.73 135.2 C209.67 87.09, 252.46 38.96, 285.16 0.11 M172.71 135.56 C216.69 83.27, 265.71 30.41, 290.8 -0.28 M172.71 135.56 C219.78 81.55, 265.7 28.37, 290.8 -0.28 M178.36 135.17 C217.79 88.82, 257.49 43.82, 295.79 0.08 M178.36 135.17 C220.57 84.96, 263.53 36.75, 295.79 0.08 M183.34 135.53 C214.73 99.86, 246.21 65.16, 300.78 0.44 M183.34 135.53 C209.1 106.43, 232.46 78.43, 300.78 0.44 M188.99 135.13 C233.82 87.12, 277.05 34.51, 306.42 0.04 M188.99 135.13 C218.92 101.32, 248.58 66.86, 306.42 0.04 M193.97 135.49 C226.24 97.22, 258.22 62.51, 311.41 0.4 M193.97 135.49 C229.89 93.88, 265.91 53.1, 311.41 0.4 M199.62 135.1 C246.81 81.93, 293.04 28.75, 317.05 0.01 M199.62 135.1 C234.69 94.44, 269.67 54.79, 317.05 0.01 M204.6 135.46 C233.6 104.17, 257.32 73.13, 322.04 0.37 M204.6 135.46 C241.35 91.4, 279.44 48.48, 322.04 0.37 M210.25 135.06 C235.43 107.25, 263.36 75.93, 327.68 -0.03 M210.25 135.06 C246.72 90.9, 286.26 45.72, 327.68 -0.03 M215.23 135.42 C251.66 91.82, 292.44 46.05, 332.67 0.33 M215.23 135.42 C255.14 89.09, 295.39 42.79, 332.67 0.33 M220.88 135.03 C262.58 84.25, 305.91 36.44, 338.31 -0.06 M220.88 135.03 C260.59 91.16, 299.55 45.04, 338.31 -0.06 M225.86 135.39 C269.75 85.5, 313.61 37, 343.3 0.3 M225.86 135.39 C262.01 95.28, 294.91 55.3, 343.3 0.3 M231.51 135 C265.31 99.42, 293.28 63.04, 348.94 -0.1 M231.51 135 C260.93 100.24, 291.27 63.97, 348.94 -0.1 M236.49 135.36 C279.17 93.08, 317.98 47.64, 353.93 0.26 M236.49 135.36 C278.74 85.17, 323.94 35, 353.93 0.26 M242.14 134.96 C266.96 104.08, 295.62 74.13, 359.57 -0.13 M242.14 134.96 C287.93 84.08, 331.16 32.02, 359.57 -0.13 M247.12 135.32 C273.98 104.02, 299.08 75.62, 364.56 0.23 M247.12 135.32 C272.98 106.95, 300.04 74.7, 364.56 0.23 M252.77 134.93 C285.73 97.4, 316.36 62.95, 370.2 -0.17 M252.77 134.93 C294.43 87.54, 334.7 39.96, 370.2 -0.17 M257.75 135.29 C281.04 104.66, 308.38 74.91, 375.19 0.19 M257.75 135.29 C297.49 90.27, 337.1 44.43, 375.19 0.19 M262.74 135.65 C297.47 97.13, 330.65 56.99, 380.83 -0.2 M262.74 135.65 C305.2 84.81, 347.45 35.93, 380.83 -0.2 M268.38 135.25 C305.07 94.9, 341.32 54.47, 385.82 0.16 M268.38 135.25 C300.25 98.14, 329.99 62.51, 385.82 0.16 M273.37 135.61 C309.26 91.8, 345.71 52.09, 391.46 -0.24 M273.37 135.61 C316.65 83.29, 361.9 32.41, 391.46 -0.24 M279.01 135.22 C308.51 99.9, 341.24 65.97, 396.45 0.12 M279.01 135.22 C304.25 108.41, 328.33 78.86, 396.45 0.12 M284 135.58 C310.25 105.68, 337.15 75.24, 402.09 -0.27 M284 135.58 C316.27 96.76, 349.8 56.88, 402.09 -0.27 M289.64 135.18 C318.21 98.99, 348.48 63.6, 407.08 0.09 M289.64 135.18 C315.52 104.8, 340.51 74.13, 407.08 0.09 M294.63 135.54 C322.01 105.25, 349.8 73.65, 412.07 0.45 M294.63 135.54 C335.57 88.08, 377.11 41.46, 412.07 0.45 M300.28 135.15 C332.16 99.13, 364.67 58.64, 417.71 0.06 M300.28 135.15 C326 107.38, 350.57 78.11, 417.71 0.06 M305.26 135.51 C334.4 103.61, 359.38 71.81, 422.7 0.42 M305.26 135.51 C349.85 82.59, 394.51 31.67, 422.7 0.42 M310.91 135.11 C344.29 96.13, 381 57.67, 428.34 0.02 M310.91 135.11 C352.22 89.67, 393.9 42.9, 428.34 0.02 M315.89 135.47 C341.33 107.2, 366.69 76.9, 433.33 0.38 M315.89 135.47 C355.99 87.14, 396.75 41.44, 433.33 0.38 M321.54 135.08 C352.54 101.05, 382.34 64.9, 438.97 -0.01 M321.54 135.08 C348.21 102.53, 376.15 70.79, 438.97 -0.01 M326.52 135.44 C361.29 97.52, 394.62 55.93, 443.96 0.35 M326.52 135.44 C367.01 88.58, 407.84 40.81, 443.96 0.35 M332.17 135.05 C374.16 87.74, 413.71 39.04, 448.94 0.71 M332.17 135.05 C373.69 89.25, 413.62 42.52, 448.94 0.71 M337.15 135.41 C364.5 104.99, 391.89 76.1, 453.27 1.82 M337.15 135.41 C368.63 100.08, 398.19 64.86, 453.27 1.82 M342.8 135.01 C379.59 93.37, 420.3 46.2, 458.26 2.18 M342.8 135.01 C388.39 82.59, 434.02 30.05, 458.26 2.18 M347.78 135.37 C384.74 93.03, 419.31 52.3, 461.94 4.05 M347.78 135.37 C384.35 91.95, 420.79 50.76, 461.94 4.05 M353.43 134.98 C391.03 90.72, 431 45.27, 465.61 5.92 M353.43 134.98 C396 87.74, 435.61 40.76, 465.61 5.92 M358.41 135.34 C395.2 90.25, 432.14 50.42, 469.29 7.79 M358.41 135.34 C388.84 99.83, 420.59 62.07, 469.29 7.79 M364.06 134.94 C403.77 88.79, 442.75 43.9, 471.65 11.17 M364.06 134.94 C393.37 101.36, 424.21 65.99, 471.65 11.17 M369.04 135.3 C405.38 91.14, 445.79 45.31, 473.36 15.3 M369.04 135.3 C398.83 101.67, 429.79 65.36, 473.36 15.3 M374.03 135.66 C408.95 95.68, 442.23 58.88, 475.06 19.44 M374.03 135.66 C395.96 111.31, 416.26 85.47, 475.06 19.44 M379.67 135.27 C415.41 91.33, 454.04 50.76, 476.11 24.33 M379.67 135.27 C400.94 112.19, 421.82 88.54, 476.11 24.33 M384.66 135.63 C423.94 93.31, 460.52 51.69, 477.16 29.21 M384.66 135.63 C412.56 102.99, 441.68 69.92, 477.16 29.21 M390.3 135.23 C412.79 110.79, 435 85.29, 476.9 35.61 M390.3 135.23 C415.63 105.95, 440.97 75.24, 476.9 35.61 M395.29 135.59 C418.7 107.67, 444.33 78.68, 476.64 42.01 M395.29 135.59 C424.44 102.69, 453.27 69.69, 476.64 42.01 M400.93 135.2 C429.25 103.51, 457.14 72.7, 477.04 47.65 M400.93 135.2 C425.47 106.17, 449.65 78.16, 477.04 47.65 M405.92 135.56 C435.54 104.37, 461.11 71.22, 476.77 54.05 M405.92 135.56 C432.23 105.09, 460.04 74.5, 476.77 54.05 M411.56 135.16 C433.49 106.88, 458.03 81.36, 477.17 59.69 M411.56 135.16 C428 116.82, 442.8 100.4, 477.17 59.69 M416.55 135.52 C432.14 121.86, 443.33 105.59, 476.91 66.09 M416.55 135.52 C432.58 115.34, 450.36 96.98, 476.91 66.09 M422.19 135.13 C435.01 121.8, 444.17 106.45, 477.3 71.73 M422.19 135.13 C440.49 113.6, 457.93 92.73, 477.3 71.73 M427.18 135.49 C439.8 118.23, 456.39 99.96, 477.04 78.13 M427.18 135.49 C447.67 113.08, 466.44 89.79, 477.04 78.13 M432.82 135.1 C451.5 116.38, 468 97.08, 477.44 83.77 M432.82 135.1 C444.62 122.06, 454.69 110.16, 477.44 83.77 M437.81 135.46 C452.37 118.51, 468.1 99.72, 477.17 90.17 M437.81 135.46 C449.92 120.71, 463.84 105.87, 477.17 90.17 M443.45 135.06 C450.52 124.89, 460.89 116, 477.57 95.82 M443.45 135.06 C457.2 118.94, 471.41 103.31, 477.57 95.82 M449.1 134.67 C460.41 123.38, 469.64 108.75, 477.31 102.21 M449.1 134.67 C459.13 124.27, 467.92 112.03, 477.31 102.21 M455.4 133.52 C465.49 125.24, 470.92 114.23, 477.05 108.61 M455.4 133.52 C462.71 124.56, 469.62 116.45, 477.05 108.61 M461.69 132.37 C465.34 127.24, 467.66 123.62, 474.82 117.27 M461.69 132.37 C466.71 127.35, 470.89 122.12, 474.82 117.27" stroke="#d0bfff" stroke-width="0.5" fill="none"></path><path d="M32 0 C187.02 1.58, 339.43 0.73, 444.77 0 M444.77 0 C465.27 -1.14, 475.37 11.08, 476.77 32 M476.77 32 C476.57 51.82, 476.39 74.85, 476.77 102.85 M476.77 102.85 C476.31 125.95, 465.78 135.43, 444.77 134.85 M444.77 134.85 C331.9 135.77, 216.3 136.41, 32 134.85 M32 134.85 C12.59 134.29, 0.79 125.59, 0 102.85 M0 102.85 C1.4 78.82, 1.02 54.82, 0 32 M0 32 C-1.48 9.99, 11.23 1.47, 32 0" stroke="#1e1e1e" stroke-width="1.5" fill="none" stroke-dasharray="1.5 7"></path></g><g stroke-linecap="round" transform="translate(14.703225147748526 288.77228706662834) rotate(0 91.0821624535647 67.42710205450655)"><path d="M7.86 8.16 C7.86 8.16, 7.86 8.16, 7.86 8.16 M7.86 8.16 C7.86 8.16, 7.86 8.16, 7.86 8.16 M3.66 19.09 C6.95 16.49, 9.21 12.65, 18.1 2.48 M3.66 19.09 C8.5 12.22, 15.04 7.94, 18.1 2.48 M2.75 26.24 C8.49 18.18, 15.68 9.93, 24.4 1.33 M2.75 26.24 C9.21 20.6, 14.64 12.38, 24.4 1.33 M2.48 32.64 C12.1 21.67, 26.46 6.25, 30.7 0.18 M2.48 32.64 C9.33 23.06, 17.51 15.48, 30.7 0.18 M2.88 38.28 C12.29 30.87, 17.75 22.77, 34.37 2.05 M2.88 38.28 C14.53 26.44, 25.26 13.84, 34.37 2.05 M2.62 44.68 C17.43 27.18, 30.22 13.91, 39.36 2.41 M2.62 44.68 C13.74 34.15, 23.6 21.25, 39.36 2.41 M2.36 51.07 C12.55 40.83, 20.93 30.83, 45 2.02 M2.36 51.07 C14.56 38.49, 24.3 24.61, 45 2.02 M2.75 56.72 C20.05 38.62, 36.26 21.03, 49.99 2.38 M2.75 56.72 C17.02 41.59, 30.23 25.77, 49.99 2.38 M2.49 63.11 C16.34 42.45, 34.14 25.65, 55.63 1.98 M2.49 63.11 C23.79 38.78, 45.48 13.56, 55.63 1.98 M2.88 68.76 C19.96 49.77, 34.08 32.05, 60.62 2.34 M2.88 68.76 C25.04 42.61, 47.01 18.13, 60.62 2.34 M2.62 75.16 C21.22 52, 42.7 28.63, 66.26 1.95 M2.62 75.16 C28.06 46.79, 52.1 19.44, 66.26 1.95 M2.36 81.55 C27.55 51.62, 55.8 21.62, 71.25 2.31 M2.36 81.55 C29.12 51.04, 57.22 17.71, 71.25 2.31 M2.76 87.2 C20.27 69.87, 35.55 48.2, 76.89 1.91 M2.76 87.2 C25.53 62, 46.62 35.47, 76.89 1.91 M2.49 93.59 C33.62 59.49, 65.09 22.2, 81.88 2.27 M2.49 93.59 C28.39 63.98, 55.14 35.38, 81.88 2.27 M2.89 99.24 C26.17 74.99, 43.86 50.23, 87.52 1.88 M2.89 99.24 C28.89 72.21, 52.98 43.04, 87.52 1.88 M2.63 105.64 C30.49 73.65, 60.65 39.42, 92.51 2.24 M2.63 105.64 C29 75.64, 54.97 44.05, 92.51 2.24 M2.37 112.03 C36.87 71.31, 75.22 28.11, 98.15 1.85 M2.37 112.03 C34.84 75.87, 66.18 38.37, 98.15 1.85 M4.07 116.17 C29.03 86.14, 55.69 57.13, 103.14 2.21 M4.07 116.17 C41.89 71.31, 81.04 26.39, 103.14 2.21 M5.12 121.06 C45.07 72.36, 86.4 25.88, 108.78 1.81 M5.12 121.06 C33.46 88.45, 62.12 53.71, 108.78 1.81 M7.49 124.43 C33.83 93.66, 60.82 61.2, 113.77 2.17 M7.49 124.43 C35.95 91.96, 65.72 57.4, 113.77 2.17 M9.85 127.81 C41.83 92.99, 71.33 55.63, 119.41 1.78 M9.85 127.81 C34.08 100.25, 57.9 72.55, 119.41 1.78 M12.87 130.44 C36.23 104.32, 60.01 75.98, 124.4 2.14 M12.87 130.44 C51.2 87.63, 88.63 45.71, 124.4 2.14 M16.54 132.31 C44.8 101.31, 67.6 74.11, 130.04 1.74 M16.54 132.31 C49.16 91.46, 83.05 51.69, 130.04 1.74 M20.22 134.18 C55.7 91.24, 95.73 47.57, 135.03 2.1 M20.22 134.18 C56.06 91.77, 92.38 50.77, 135.03 2.1 M24.55 135.29 C47.22 104.02, 74 78.16, 140.67 1.71 M24.55 135.29 C63.6 90.37, 101.91 45.42, 140.67 1.71 M29.54 135.65 C66.33 96.58, 102.26 54.5, 145.66 2.07 M29.54 135.65 C67.91 91.78, 105.13 47.75, 145.66 2.07 M33.87 136.77 C56.86 108.18, 84.82 80.15, 151.96 0.92 M33.87 136.77 C76.62 87.77, 119.78 37.79, 151.96 0.92 M39.51 136.37 C81.37 88.71, 119.76 42.22, 156.29 2.03 M39.51 136.37 C66.62 104.95, 92.93 74.43, 156.29 2.03 M44.5 136.73 C68.57 110.28, 94.05 81.47, 161.28 2.39 M44.5 136.73 C81.08 95.84, 118.56 53.95, 161.28 2.39 M50.14 136.34 C92.8 87.74, 133.5 42.95, 165.61 3.51 M50.14 136.34 C75.74 105.84, 102.89 74.43, 165.61 3.51 M55.13 136.7 C97.07 88.72, 137.1 44.31, 169.28 5.38 M55.13 136.7 C92.2 93.51, 129.03 52.58, 169.28 5.38 M60.77 136.3 C98.13 92.58, 132.16 51.98, 172.96 7.25 M60.77 136.3 C92.84 98.04, 124.45 60.4, 172.96 7.25 M65.76 136.66 C90.67 105.51, 115.5 76.42, 175.97 9.87 M65.76 136.66 C91.54 107.83, 116.58 78.32, 175.97 9.87 M71.4 136.27 C108.88 93.06, 143.34 53.01, 178.34 13.25 M71.4 136.27 C104.66 95.15, 139.83 56.22, 178.34 13.25 M76.39 136.63 C117.94 90.49, 161.23 42.3, 180.7 16.63 M76.39 136.63 C104.01 102.74, 133.65 69.37, 180.7 16.63 M82.03 136.23 C121.58 94.4, 157.79 48.8, 183.06 20.01 M82.03 136.23 C102.79 111.07, 122.41 88.1, 183.06 20.01 M87.02 136.59 C108.94 114.12, 127.31 87.15, 183.46 25.65 M87.02 136.59 C108.32 113.4, 127.86 88.74, 183.46 25.65 M92 136.95 C120.78 99.7, 152.81 67.09, 182.54 32.8 M92 136.95 C122.22 101.14, 154.12 64.49, 182.54 32.8 M97.65 136.56 C120.3 112.28, 140.33 87.75, 182.93 38.45 M97.65 136.56 C129.17 97.31, 163.05 59.73, 182.93 38.45 M102.63 136.92 C119.56 119.79, 135.79 99.57, 182.67 44.84 M102.63 136.92 C130.19 105.9, 155.65 76.88, 182.67 44.84 M108.28 136.52 C127.54 113.7, 146.64 93.14, 182.41 51.24 M108.28 136.52 C126.32 116.09, 144.01 96.68, 182.41 51.24 M113.26 136.88 C130.68 117.73, 147.66 97.23, 182.81 56.89 M113.26 136.88 C133.99 114.97, 153.58 89.72, 182.81 56.89 M118.91 136.49 C141 108.66, 164.2 83.79, 182.55 63.28 M118.91 136.49 C135.4 118.94, 151.54 99.68, 182.55 63.28 M123.89 136.85 C140.02 120.26, 154.91 100.54, 182.28 69.68 M123.89 136.85 C141.57 115.7, 159.78 95.9, 182.28 69.68 M129.54 136.46 C146.83 114.35, 164.68 93.49, 182.68 75.32 M129.54 136.46 C147.55 116.29, 166.96 94.51, 182.68 75.32 M134.52 136.82 C149.72 120.72, 162.64 106.64, 182.42 81.72 M134.52 136.82 C144.44 125.5, 153.93 114.27, 182.42 81.72 M140.17 136.42 C154.45 119.73, 168.38 102.28, 182.16 88.12 M140.17 136.42 C154.46 120.52, 167.75 105.86, 182.16 88.12 M145.15 136.78 C158.02 123.23, 166.61 109.93, 182.55 93.76 M145.15 136.78 C158.9 121.36, 172.58 103.16, 182.55 93.76 M151.45 135.63 C162.56 124.39, 170.78 112.77, 182.29 100.16 M151.45 135.63 C156.72 128.79, 162.94 119.84, 182.29 100.16 M157.1 135.24 C166.6 124.78, 175.33 111.93, 182.03 106.56 M157.1 135.24 C165.8 123.88, 176.21 113.04, 182.03 106.56 M164.05 133.33 C168.56 127.26, 178.02 118.03, 183.08 111.45 M164.05 133.33 C169.12 127.02, 175.63 121.04, 183.08 111.45" stroke="#a5d8ff" stroke-width="0.5" fill="none"></path><path d="M32 0 C55.19 -1.69, 84.07 -1.17, 150.16 0 M150.16 0 C170.22 -1.26, 181.13 9.84, 182.16 32 M182.16 32 C183.56 47.36, 181.79 61.22, 182.16 102.85 M182.16 102.85 C181.75 125.76, 171.54 134.62, 150.16 134.85 M150.16 134.85 C110.83 134.47, 71.3 135.56, 32 134.85 M32 134.85 C9.81 134.95, 0.09 123.84, 0 102.85 M0 102.85 C-2.02 87.89, 1.03 67.66, 0 32 M0 32 C-0.76 12.48, 10.17 -0.03, 32 0" stroke="#1e1e1e" stroke-width="1.5" fill="none" stroke-dasharray="1.5 7"></path></g><g transform="translate(78.7353883642536 343.69938912113486) rotate(0 27.049999237060547 12.5)"><text x="27.049999237060547" y="17.52" font-family="Virgil, Segoe UI Emoji" font-size="20px" fill="#1e1e1e" text-anchor="middle" style="white-space: pre;" direction="ltr" dominant-baseline="alphabetic">Client</text></g><g stroke-linecap="round" transform="translate(308.3589323418837 285.91344549815045) rotate(0 91.0821624535647 67.42710205450652)"><path d="M7.86 8.16 C7.86 8.16, 7.86 8.16, 7.86 8.16 M7.86 8.16 C7.86 8.16, 7.86 8.16, 7.86 8.16 M2.35 20.59 C4.53 16.43, 9.61 13.51, 18.1 2.48 M2.35 20.59 C6.07 16.41, 10.16 12.3, 18.1 2.48 M1.43 27.75 C8.34 19.41, 14.39 10.46, 24.4 1.33 M1.43 27.75 C9.73 17.4, 17.39 9, 24.4 1.33 M1.17 34.14 C9.33 25.4, 16.86 17.79, 30.7 0.18 M1.17 34.14 C9.44 25.79, 16.62 18.14, 30.7 0.18 M0.91 40.54 C10.32 27.33, 19.77 15.68, 36.34 -0.21 M0.91 40.54 C8.17 31.05, 16.36 23.22, 36.34 -0.21 M1.31 46.19 C9.97 34.1, 20.95 24.62, 41.33 0.15 M1.31 46.19 C8.26 36.98, 17.26 27.33, 41.33 0.15 M1.04 52.58 C18.46 31.55, 37.85 13.22, 46.97 -0.25 M1.04 52.58 C14.91 37.76, 26.86 24.36, 46.97 -0.25 M1.44 58.23 C20.06 38.37, 36.86 18.7, 51.96 0.11 M1.44 58.23 C13.79 45.16, 24.53 31.28, 51.96 0.11 M1.18 64.62 C16.25 50.66, 27.13 32.65, 57.6 -0.28 M1.18 64.62 C16.87 46.33, 32.14 28.32, 57.6 -0.28 M0.92 71.02 C22.6 45.65, 46.66 17.02, 62.59 0.08 M0.92 71.02 C20.15 49.87, 38.44 29.79, 62.59 0.08 M1.31 76.67 C23.48 52.33, 48.17 24.29, 67.57 0.44 M1.31 76.67 C19.86 54.84, 40.53 32.47, 67.57 0.44 M1.05 83.06 C24.62 52.66, 51.6 25.96, 73.22 0.04 M1.05 83.06 C17.08 61.66, 35.5 42.52, 73.22 0.04 M1.44 88.71 C29.16 56.87, 53.68 27.27, 78.2 0.41 M1.44 88.71 C30 57.3, 57.91 24.81, 78.2 0.41 M1.18 95.1 C23.46 71.15, 41.82 48.29, 83.85 0.01 M1.18 95.1 C30.8 61.9, 58.5 29.59, 83.85 0.01 M0.92 101.5 C34.26 65.83, 65.88 24.3, 88.83 0.37 M0.92 101.5 C23.77 74.46, 48.87 46.81, 88.83 0.37 M1.32 107.14 C27.25 76.49, 54.26 47.62, 94.48 -0.02 M1.32 107.14 C34.58 67.97, 69.05 31.19, 94.48 -0.02 M1.71 112.79 C27.44 83.28, 51.29 59.71, 99.46 0.34 M1.71 112.79 C35.03 74, 66.96 34.59, 99.46 0.34 M2.76 117.68 C27.38 89.02, 53.27 61.5, 105.11 -0.06 M2.76 117.68 C28.18 88.01, 53.15 60.22, 105.11 -0.06 M4.47 121.81 C33.47 90.6, 61.57 59.15, 110.09 0.3 M4.47 121.81 C32.23 87.98, 61.79 53.58, 110.09 0.3 M6.83 125.19 C38.35 85.92, 72.57 48.61, 115.74 -0.09 M6.83 125.19 C34.87 91.33, 63.63 59.09, 115.74 -0.09 M9.85 127.81 C37.16 97.24, 63.73 63.98, 120.72 0.27 M9.85 127.81 C45.14 87.46, 81.67 46.91, 120.72 0.27 M13.52 129.68 C42.34 93.9, 74.6 58.3, 126.37 -0.13 M13.52 129.68 C47.15 89.62, 80.5 49.64, 126.37 -0.13 M16.54 132.31 C53.98 91.76, 87.4 50.23, 131.35 0.23 M16.54 132.31 C46.55 96.44, 77.46 61.94, 131.35 0.23 M20.87 133.42 C56.62 89.67, 93.94 50.34, 137 -0.16 M20.87 133.42 C58.24 91.23, 95.62 48.63, 137 -0.16 M25.2 134.54 C54.42 97.02, 84.57 66.11, 141.98 0.2 M25.2 134.54 C57.61 98.84, 89.27 63.4, 141.98 0.2 M30.19 134.9 C55.88 106.42, 82.31 76.29, 147.63 -0.2 M30.19 134.9 C65.59 93.72, 102.87 53.5, 147.63 -0.2 M35.18 135.26 C80.55 83.4, 126.1 31.45, 151.96 0.92 M35.18 135.26 C63.41 103.93, 90.62 72.04, 151.96 0.92 M40.17 135.62 C82.18 88.61, 122.53 40.7, 156.94 1.28 M40.17 135.62 C79.19 93.03, 116.54 49.19, 156.94 1.28 M45.81 135.22 C80.64 96.29, 117.5 52.86, 161.28 2.39 M45.81 135.22 C69.53 106.35, 94.38 80.44, 161.28 2.39 M50.8 135.58 C87.04 94.28, 123.28 51.41, 166.26 2.75 M50.8 135.58 C84.09 97.97, 116.28 59.68, 166.26 2.75 M56.44 135.19 C91.77 94.37, 128.26 54.9, 169.28 5.38 M56.44 135.19 C80.53 109.88, 103.6 81.93, 169.28 5.38 M61.43 135.55 C86.98 103.64, 113.52 72.71, 172.96 7.25 M61.43 135.55 C97.92 90.64, 135.6 46.78, 172.96 7.25 M67.07 135.15 C110.12 84.68, 152.98 33.91, 175.97 9.87 M67.07 135.15 C110.66 85.34, 154.49 35, 175.97 9.87 M72.06 135.51 C107.47 95.75, 140.01 59.1, 177.68 14 M72.06 135.51 C105.66 97.83, 137.47 58.65, 177.68 14 M77.7 135.12 C104.42 103.66, 128.48 74.75, 180.04 17.38 M77.7 135.12 C108.44 100.88, 137.45 66.22, 180.04 17.38 M82.69 135.48 C112.9 98.49, 145.9 63.1, 181.1 22.27 M82.69 135.48 C109.58 105.6, 134.51 75.98, 181.1 22.27 M88.33 135.08 C112.11 106.38, 137.94 79.98, 182.15 27.16 M88.33 135.08 C121.22 97.63, 154.85 58.35, 182.15 27.16 M93.32 135.44 C128.63 96.03, 163.38 55.1, 182.54 32.8 M93.32 135.44 C122.53 102.02, 151.7 69.28, 182.54 32.8 M98.96 135.05 C124.01 105.86, 152.43 75.87, 182.93 38.45 M98.96 135.05 C116.82 113.65, 135.73 91.87, 182.93 38.45 M103.95 135.41 C127.93 108.58, 149.31 82.45, 182.67 44.84 M103.95 135.41 C124.13 112.49, 143.89 90.05, 182.67 44.84 M109.59 135.02 C138.39 104.73, 163.16 72.03, 182.41 51.24 M109.59 135.02 C128 112.99, 145.2 93.68, 182.41 51.24 M114.58 135.38 C142.36 104.88, 167.84 76.26, 182.81 56.89 M114.58 135.38 C135.48 111.53, 154.82 89.49, 182.81 56.89 M120.22 134.98 C144.66 111.53, 165.56 83.66, 182.55 63.28 M120.22 134.98 C143.4 106.87, 167.87 80.66, 182.55 63.28 M125.21 135.34 C137.77 120.04, 149.62 107.16, 182.28 69.68 M125.21 135.34 C143.03 114.53, 160.45 93.28, 182.28 69.68 M130.85 134.95 C143.12 122.31, 153.25 108.72, 182.68 75.32 M130.85 134.95 C145.89 117.18, 161.25 99.3, 182.68 75.32 M135.84 135.31 C149.51 118.94, 167.03 97.34, 182.42 81.72 M135.84 135.31 C147.58 122.45, 158.27 108.25, 182.42 81.72 M140.82 135.67 C150.14 126.2, 159.44 116.72, 182.16 88.12 M140.82 135.67 C149.79 125.1, 159.64 114.55, 182.16 88.12 M146.47 135.27 C157.75 124.82, 167.22 110.43, 182.55 93.76 M146.47 135.27 C156.46 122.36, 166.66 111.31, 182.55 93.76 M152.11 134.88 C160.81 124.12, 173.06 111.15, 182.29 100.16 M152.11 134.88 C162.19 122.2, 173.57 110.01, 182.29 100.16 M158.41 133.73 C161.59 128.04, 168.45 119.86, 182.03 106.56 M158.41 133.73 C163.69 126.95, 170.66 119.57, 182.03 106.56 M164.05 133.33 C170.08 128.78, 172.3 122.55, 181.77 112.96 M164.05 133.33 C167.23 127.76, 172.94 123.84, 181.77 112.96" stroke="#ffec99" stroke-width="0.5" fill="none"></path><path d="M32 0 C68.94 -0.58, 100.68 -2.47, 150.16 0 M150.16 0 C169.59 -1.52, 182.18 9.12, 182.16 32 M182.16 32 C181.33 55.26, 180.87 77.97, 182.16 102.85 M182.16 102.85 C181.91 122.34, 170.96 134.73, 150.16 134.85 M150.16 134.85 C114.22 134.55, 74.63 133.69, 32 134.85 M32 134.85 C10.11 135.83, -0.97 125.64, 0 102.85 M0 102.85 C0.16 75.83, 0.43 50.59, 0 32 M0 32 C-1.48 12.67, 9.76 0.82, 32 0" stroke="#1e1e1e" stroke-width="1.5" fill="none" stroke-dasharray="1.5 7"></path></g><g transform="translate(372.4510969316798 340.840547552657) rotate(0 26.98999786376953 12.5)"><text x="26.98999786376953" y="17.52" font-family="Virgil, Segoe UI Emoji" font-size="20px" fill="#1e1e1e" text-anchor="middle" style="white-space: pre;" direction="ltr" dominant-baseline="alphabetic">Model</text></g><g mask="url(#mask-irZubWhW9IC-9Z-eGgyGN)" stroke-linecap="round"><g transform="translate(61.64556369264392 287.1057548559862) rotate(0 -0.2747834179772326 -69.09864679613646)"><path d="M-0.26 -0.25 C-0.24 -16.07, -0.26 -72.57, -0.38 -95.57 C-0.5 -118.58, -1.17 -131.08, -1 -138.28" stroke="#1e1e1e" stroke-width="1.5" fill="none" stroke-dasharray="1.5 7"></path></g><g transform="translate(61.64556369264392 287.1057548559862) rotate(0 -0.2747834179772326 -69.09864679613646)"><path d="M6.43 -118.16 C4.21 -123.07, 2.27 -129.38, -1 -138.28" stroke="#1e1e1e" stroke-width="1.5" fill="none" stroke-dasharray="1.5 5"></path></g><g transform="translate(61.64556369264392 287.1057548559862) rotate(0 -0.2747834179772326 -69.09864679613646)"><path d="M-8.24 -118.09 C-6.68 -122.99, -4.84 -129.32, -1 -138.28" stroke="#1e1e1e" stroke-width="1.5" fill="none" stroke-dasharray="1.5 5"></path></g></g><mask id="mask-irZubWhW9IC-9Z-eGgyGN"><rect x="0" y="0" fill="#fff" width="162.19513052859838" height="525.3030484482591"></rect><rect x="10" y="171.79727651648756" fill="#000" width="102.1919937133789" height="40" opacity="1"></rect></mask><g transform="translate(10 171.79727651648756) rotate(0 51.00546328657765 46.04763575578336)"><text x="51.09599685668945" y="14.016" font-family="Virgil, Segoe UI Emoji" font-size="16px" fill="#1e1e1e" text-anchor="middle" style="white-space: pre;" direction="ltr" dominant-baseline="alphabetic">HTTP image </text><text x="51.09599685668945" y="34.016" font-family="Virgil, Segoe UI Emoji" font-size="16px" fill="#1e1e1e" text-anchor="middle" style="white-space: pre;" direction="ltr" dominant-baseline="alphabetic">stream</text></g><g mask="url(#mask-Eugix4hqjNSXu7YEXGN-8)" stroke-linecap="round"><g transform="translate(447.14023698991696 282.5945143042721) rotate(0 -9.094947017729282e-13 -67.66922590258936)"><path d="M0.75 -0.29 C0.76 -22.7, 0.34 -112.73, 0.36 -135.23" stroke="#1e1e1e" stroke-width="1.5" fill="none" stroke-dasharray="1.5 7"></path></g><g transform="translate(447.14023698991696 282.5945143042721) rotate(0 -9.094947017729282e-13 -67.66922590258936)"><path d="M8.97 -111.75 C5.85 -118.68, 3.73 -125.41, 0.36 -135.23" stroke="#1e1e1e" stroke-width="1.5" fill="none" stroke-dasharray="1.5 5"></path></g><g transform="translate(447.14023698991696 282.5945143042721) rotate(0 -9.094947017729282e-13 -67.66922590258936)"><path d="M-8.14 -111.72 C-5.72 -118.76, -2.31 -125.5, 0.36 -135.23" stroke="#1e1e1e" stroke-width="1.5" fill="none" stroke-dasharray="1.5 5"></path></g></g><mask id="mask-Eugix4hqjNSXu7YEXGN-8"><rect x="0" y="0" fill="#fff" width="547.1402369899188" height="517.9329661094508"></rect><rect x="419.2602359218017" y="204.9252884016828" fill="#000" width="55.76000213623047" height="20" opacity="1"></rect></mask><g transform="translate(419.2602359218017 204.92528840168274) rotate(0 28.436008680183477 9.91292952075598)"><text x="27.880001068115234" y="14.016" font-family="Virgil, Segoe UI Emoji" font-size="16px" fill="#1e1e1e" text-anchor="middle" style="white-space: pre;" direction="ltr" dominant-baseline="alphabetic">Output</text></g><g mask="url(#mask-L4drdXSNBFgrM3O7cPmHy)" stroke-linecap="round"><g transform="translate(148.6268308347062 151.76771561389822) rotate(0 0.9891975003483822 67.669019621044)"><path d="M-0.31 -0.83 C-0.15 13.78, 0.45 63.78, 0.9 86.49 C1.35 109.2, 2.11 127.48, 2.4 135.43" stroke="#1e1e1e" stroke-width="1.5" fill="none" stroke-dasharray="1.5 7"></path></g><g transform="translate(148.6268308347062 151.76771561389822) rotate(0 0.9891975003483822 67.669019621044)"><path d="M-6.59 113.36 C-5.51 119.58, -3.45 127.17, 2.4 135.43" stroke="#1e1e1e" stroke-width="1.5" fill="none" stroke-dasharray="1.5 5"></path></g><g transform="translate(148.6268308347062 151.76771561389822) rotate(0 0.9891975003483822 67.669019621044)"><path d="M9.7 112.74 C5.95 119.11, 3.17 126.88, 2.4 135.43" stroke="#1e1e1e" stroke-width="1.5" fill="none" stroke-dasharray="1.5 5"></path></g></g><mask id="mask-L4drdXSNBFgrM3O7cPmHy"><rect x="0" y="0" fill="#fff" width="250.60522583540296" height="387.1057548559862"></rect><rect x="113.21287743996072" y="229.45151568623683" fill="#000" width="73.04000854492188" height="20" opacity="1"></rect></mask><g transform="translate(113.21287743996072 229.45151568623686) rotate(0 36.46056904852958 -10.38309599080371)"><text x="36.52000427246094" y="14.016" font-family="Virgil, Segoe UI Emoji" font-size="16px" fill="#1e1e1e" text-anchor="middle" style="white-space: pre;" direction="ltr" dominant-baseline="alphabetic">prediction</text></g><g mask="url(#mask-m4em9a6_TLj4vRthcStI8)" stroke-linecap="round"><g transform="translate(350.41361388249425 149.4410194023124) rotate(0 0.68398491543212 66.23959872749688)"><path d="M-0.33 1.08 C0.01 23.02, 1.75 110.51, 1.94 132.42" stroke="#1e1e1e" stroke-width="1.5" fill="none" stroke-dasharray="1.5 7"></path></g><g transform="translate(350.41361388249425 149.4410194023124) rotate(0 0.68398491543212 66.23959872749688)"><path d="M-6.97 109.06 C-2.43 116.8, -1.75 121.7, 1.94 132.42" stroke="#1e1e1e" stroke-width="1.5" fill="none" stroke-dasharray="1.5 5"></path></g><g transform="translate(350.41361388249425 149.4410194023124) rotate(0 0.68398491543212 66.23959872749688)"><path d="M10.13 108.8 C9.71 116.57, 5.44 121.54, 1.94 132.42" stroke="#1e1e1e" stroke-width="1.5" fill="none" stroke-dasharray="1.5 5"></path></g></g><mask id="mask-m4em9a6_TLj4vRthcStI8"><rect x="0" y="0" fill="#fff" width="451.7815837133585" height="381.9202168573062"></rect><rect x="329.9935967990259" y="205.68061812980926" fill="#000" width="42.208003997802734" height="20" opacity="1"></rect></mask><g transform="translate(329.9935967990259 205.68061812980926) rotate(0 21.22306540235786 10.509548292309063)"><text x="21.104001998901367" y="14.016" font-family="Virgil, Segoe UI Emoji" font-size="16px" fill="#1e1e1e" text-anchor="middle" style="white-space: pre;" direction="ltr" dominant-baseline="alphabetic">Input</text></g><g transform="translate(225.97966438402 14.52350680502036) rotate(0 24.15999984741211 10)"><text x="0" y="14.016" font-family="Virgil, Segoe UI Emoji" font-size="16px" fill="#1e1e1e" text-anchor="start" style="white-space: pre;" direction="ltr" dominant-baseline="alphabetic">server</text></g><g stroke-linecap="round" transform="translate(195.90469555705567 44.06913491517241) rotate(0 56.23200222030391 34.787594593916964)"><path d="M17.39 0 C44.66 -0.21, 73.04 -1.53, 95.07 0 C105.91 -1.73, 110.6 4.02, 112.46 17.39 C109.92 30.26, 110.21 41.5, 112.46 52.18 C112.64 66.38, 104.28 72.26, 95.07 69.58 C69.98 72.37, 41.59 72.22, 17.39 69.58 C9.25 69.56, 1.4 65.38, 0 52.18 C2.76 44.62, -2.3 33.2, 0 17.39 C0.71 8.73, 6.63 -2.97, 17.39 0" stroke="none" stroke-width="0" fill="#fcc2d7"></path><path d="M17.39 0 C35.38 2.25, 54.54 2.7, 95.07 0 M95.07 0 C105.77 0.2, 114.29 4.91, 112.46 17.39 M112.46 17.39 C111.64 29.28, 112.74 39.09, 112.46 52.18 M112.46 52.18 C114.34 63.78, 107.72 69.4, 95.07 69.58 M95.07 69.58 C74.89 68.31, 54.94 71.1, 17.39 69.58 M17.39 69.58 C3.92 69.05, 0.81 65.64, 0 52.18 M0 52.18 C1.53 43.33, 0.38 31.82, 0 17.39 M0 17.39 C1.8 7.5, 4.34 -1.12, 17.39 0" stroke="#1e1e1e" stroke-width="1.5" fill="none" stroke-dasharray="1.5 7"></path></g><g transform="translate(202.12870217189084 68.85672950908938) rotate(0 50.00799560546875 10)"><text x="50.00799560546875" y="14.016" font-family="Virgil, Segoe UI Emoji" font-size="16px" fill="#1e1e1e" text-anchor="middle" style="white-space: pre;" direction="ltr" dominant-baseline="alphabetic">resize Image</text></g><g stroke-linecap="round" transform="translate(339.29115730099693 44.069134998197484) rotate(0 56.23200222030391 34.787594593916964)"><path d="M17.39 0 C37.27 -1.17, 52.65 -1.71, 95.07 0 C103.93 3.58, 112.56 8.34, 112.46 17.39 C112.23 32.79, 115.42 44.76, 112.46 52.18 C115.03 60.42, 105.21 67.16, 95.07 69.58 C74.47 69.97, 56.04 71.24, 17.39 69.58 C6.44 66.77, -1.74 62.02, 0 52.18 C1.59 43.06, -3.62 30.96, 0 17.39 C-2.61 4.12, 5.36 -0.76, 17.39 0" stroke="none" stroke-width="0" fill="#6741d9"></path><path d="M17.39 0 C38.39 0.02, 61.31 -1.42, 95.07 0 M95.07 0 C104.89 -1.01, 111.49 6.03, 112.46 17.39 M112.46 17.39 C114.27 27.53, 110.77 37.71, 112.46 52.18 M112.46 52.18 C113.08 64.93, 108.59 70.97, 95.07 69.58 M95.07 69.58 C67.45 71.67, 37.64 71.1, 17.39 69.58 M17.39 69.58 C4.42 70.85, -1.21 62.71, 0 52.18 M0 52.18 C-0.83 45.33, -1.53 38.9, 0 17.39 M0 17.39 C0.56 4.22, 7.46 -0.02, 17.39 0" stroke="#1e1e1e" stroke-width="1.5" fill="none" stroke-dasharray="1.5 7"></path></g><g transform="translate(350.819160955627 68.85672959211445) rotate(0 44.70399856567383 10)"><text x="44.70399856567383" y="14.016" font-family="Virgil, Segoe UI Emoji" font-size="16px" fill="#1e1e1e" text-anchor="middle" style="white-space: pre;" direction="ltr" dominant-baseline="alphabetic">Load Model</text></g><g stroke-linecap="round" transform="translate(51.565149022739206 44.06913509026489) rotate(0 56.23200222030391 34.787594593916964)"><path d="M17.39 0 C47.57 -4.36, 77.52 0.61, 95.07 0 C104.29 -2.88, 115.76 4.87, 112.46 17.39 C111.15 23.81, 112 30.61, 112.46 52.18 C111.84 61.18, 108.84 68.73, 95.07 69.58 C75.21 70.23, 59.14 72.59, 17.39 69.58 C5.84 66.12, -1.65 65.58, 0 52.18 C-0.29 43.31, 3.77 39.35, 0 17.39 C-0.08 2.47, 8.1 0.25, 17.39 0" stroke="none" stroke-width="0" fill="#eebefa"></path><path d="M17.39 0 C34.92 -0.25, 52.69 1.9, 95.07 0 M95.07 0 C105.7 0.89, 113.34 7.6, 112.46 17.39 M112.46 17.39 C113.25 27.89, 114.56 41.05, 112.46 52.18 M112.46 52.18 C112.52 61.8, 105.92 68.05, 95.07 69.58 M95.07 69.58 C68.13 68.18, 39.45 69.28, 17.39 69.58 M17.39 69.58 C5.87 68.8, -1.6 63.05, 0 52.18 M0 52.18 C0.74 41.02, 1.59 32.5, 0 17.39 M0 17.39 C1.7 5.68, 6.61 0.51, 17.39 0" stroke="#1e1e1e" stroke-width="1.5" fill="none" stroke-dasharray="1.5 7"></path></g><g transform="translate(57.69315115149038 58.85672968418186) rotate(0 50.104000091552734 20)"><text x="50.104000091552734" y="14.016" font-family="Virgil, Segoe UI Emoji" font-size="16px" fill="#1e1e1e" text-anchor="middle" style="white-space: pre;" direction="ltr" dominant-baseline="alphabetic">collect image</text><text x="50.104000091552734" y="34.016" font-family="Virgil, Segoe UI Emoji" font-size="16px" fill="#1e1e1e" text-anchor="middle" style="white-space: pre;" direction="ltr" dominant-baseline="alphabetic">stream</text></g><g stroke-linecap="round"><g transform="translate(167.8414925969264 77.42710250908937) rotate(0 13.819729359227495 0.47654239169749246)"><path d="M-0.3 -0.84 C4.2 -0.52, 22.88 0.88, 27.61 1.27 M1.75 1.33 C6.03 1.33, 22.35 -0.37, 26.64 -0.68" stroke="#1e1e1e" stroke-width="1" fill="none"></path></g><g transform="translate(167.8414925969264 77.42710250908937) rotate(0 13.819729359227495 0.47654239169749246)"><path d="M13.15 5.14 C18.94 3.63, 23.62 0.42, 27.02 0.05 M14.02 4.84 C19.01 3.29, 23.18 0.75, 26.72 -0.02" stroke="#1e1e1e" stroke-width="1" fill="none"></path></g><g transform="translate(167.8414925969264 77.42710250908937) rotate(0 13.819729359227495 0.47654239169749246)"><path d="M12.31 -4.28 C18.35 -2.47, 23.32 -2.35, 27.02 0.05 M13.18 -4.58 C18.45 -2.84, 22.91 -2.09, 26.72 -0.02" stroke="#1e1e1e" stroke-width="1" fill="none"></path></g></g><mask></mask><g stroke-linecap="round"><g transform="translate(309.7760671065753 78.06853953796545) rotate(0 13.369649009042405 0.5434279303154312)"><path d="M0.43 0.55 C4.79 0.73, 21.68 1.22, 26.17 1.41 M-0.81 -0.21 C3.35 -0.44, 20.3 -0.52, 24.93 -0.54" stroke="#1e1e1e" stroke-width="1" fill="none"></path></g><g transform="translate(309.7760671065753 78.06853953796545) rotate(0 13.369649009042405 0.5434279303154312)"><path d="M12.99 3.47 C16.46 3.39, 20.49 0.96, 25.37 -0.74 M12.67 3.83 C15.57 3.54, 19.26 2.23, 24.27 -0.48" stroke="#1e1e1e" stroke-width="1" fill="none"></path></g><g transform="translate(309.7760671065753 78.06853953796545) rotate(0 13.369649009042405 0.5434279303154312)"><path d="M12.93 -5.68 C16.45 -3.04, 20.49 -2.75, 25.37 -0.74 M12.62 -5.33 C15.6 -3.31, 19.3 -2.32, 24.27 -0.48" stroke="#1e1e1e" stroke-width="1" fill="none"></path></g></g><mask></mask></svg>